<svg width="14" height="14" viewBox="0 0 14 14" fill="none" xmlns="http://www.w3.org/2000/svg">
<path d="M6.52095 0C10.2175 0 13.0159 3.03074 13.0159 6.49816C13.0159 10.5196 9.73587 13.0159 6.50794 13.0159C5.44064 13.0159 4.25619 12.7291 3.30603 12.1686C2.97413 11.9665 2.69429 11.8166 2.33635 11.9339L1.02175 12.325C0.689841 12.4293 0.390476 12.1686 0.488095 11.8166L0.924127 10.3566C0.995714 10.1546 0.982698 9.93951 0.878571 9.77005C0.318889 8.74025 0 7.61269 0 6.51771C0 3.0894 2.73984 0 6.52095 0ZM9.49508 5.68996C9.03302 5.68996 8.66206 6.06147 8.66206 6.52423C8.66206 6.98047 9.03302 7.3585 9.49508 7.3585C9.95714 7.3585 10.3281 6.98047 10.3281 6.52423C10.3281 6.06147 9.95714 5.68996 9.49508 5.68996ZM6.49492 5.68996C6.03936 5.68345 5.6619 6.06147 5.6619 6.51771C5.6619 6.98047 6.03286 7.35198 6.49492 7.3585C6.95698 7.3585 7.32794 6.98047 7.32794 6.52423C7.32794 6.06147 6.95698 5.68996 6.49492 5.68996ZM3.49476 5.68996C3.0327 5.68996 2.66175 6.06147 2.66175 6.52423C2.66175 6.98047 3.03921 7.3585 3.49476 7.3585C3.95683 7.35198 4.32778 6.98047 4.32778 6.52423C4.32778 6.06147 3.95683 5.68996 3.49476 5.68996Z" fill="black"/>
</svg>
