<svg width="14" height="14" viewBox="0 0 14 14" fill="none" xmlns="http://www.w3.org/2000/svg">
<path d="M4.01562 0.5H4.07129L4.33691 0.518555C4.59505 0.546812 4.84656 0.604708 5.09277 0.691406L5.10449 0.703125L5.21582 0.740234C5.34293 0.783238 5.44475 0.825592 5.53516 0.87793L5.55371 0.888672L5.57227 0.897461L5.7959 1.00293C5.81282 1.01341 5.8405 1.03241 5.88281 1.06445C5.89929 1.07694 5.93455 1.10442 5.9541 1.11914C5.97671 1.13616 6.00917 1.15954 6.04199 1.18066V1.18164L6.04883 1.18555C6.13297 1.2378 6.16685 1.25712 6.19434 1.2793L6.50781 1.53223L6.82129 1.2793C7.45845 0.766837 8.22555 0.494156 9.00977 0.5H9.01367C9.37501 0.500026 9.72802 0.553501 10.0576 0.669922L10.0615 0.671875C12.1217 1.37691 12.9646 3.80929 12.29 6.0752C11.9021 7.242 11.2697 8.30306 10.4473 9.16895C9.249 10.3897 7.93736 11.4757 6.52832 12.417C5.11129 11.4811 3.78837 10.3939 2.57617 9.16406C1.75814 8.29698 1.12567 7.24055 0.731445 6.07324C0.0465478 3.81157 0.885702 1.377 2.97461 0.657227L2.98242 0.654297C3.1312 0.600294 3.28453 0.563418 3.4375 0.541016H3.50684L3.54492 0.535156C3.70143 0.511138 3.85777 0.5 4.01562 0.5ZM9.95117 1.66309C9.42891 1.53482 8.92175 1.85512 8.75488 2.34668L8.75195 2.35645C8.58774 2.87502 8.83405 3.47112 9.37012 3.67676V3.67773C9.55275 3.74972 9.70655 3.93856 9.74219 4.18066L9.75 4.28809C9.73306 4.55789 9.81158 4.82734 9.97949 5.04199C10.1633 5.27696 10.4304 5.40312 10.6943 5.42969L10.7266 5.43359L10.7588 5.43262C11.3033 5.41715 11.7221 4.96969 11.7578 4.44531L11.7588 4.42773V4.33008C11.7783 3.18205 11.1164 2.1178 10.0713 1.7002L10.0557 1.69434L9.95117 1.66309Z" fill="#EC1C24" stroke="black"/>
</svg>
